# xmcd
#
# Track frame offsets:
# 150
# 24810
# 43185
# 69538
# 91458
# 117773
# 138075
# 159720
# 181200
# 202500
#
# Disc length: 2944 seconds
#
# Revision: 0
# Processed by: cddbd v1.4PL0 Copyright (c) Steve Scherf et al.
# Submitted via: Audion 3.0.2 (http://www.panic.com/audion/)
#
DISCID=770b7e0a
DTITLE=Ce Ce Peniston - Finally
DYEAR=1900
DGENRE=
TTITLE0=We Gotta Love Thang
TTITLE1=Finally
TTITLE2=Inside That I Cried
TTITLE3=Lifeline
TTITLE4=It Should Have Been You
TTITLE5=Keep On Walkin'
TTITLE6=Crazy Love
TTITLE7=I See Love
TTITLE8=You Win, I Win We Lose
TTITLE9=Virtue
EXTD=
EXTT0=
EXTT1=
EXTT2=
EXTT3=
EXTT4=
EXTT5=
EXTT6=
EXTT7=
EXTT8=
EXTT9=
PLAYORDER=
